<?xml version="1.0" standalone="no"?>
<!DOCTYPE svg PUBLIC "-//W3C//DTD SVG 20010904//EN"
 "http://www.w3.org/TR/2001/REC-SVG-20010904/DTD/svg10.dtd">
<svg version="1.0" xmlns="http://www.w3.org/2000/svg"
 width="512.000000pt" height="512.000000pt" viewBox="0 0 512.000000 512.000000"
 preserveAspectRatio="xMidYMid meet">
<metadata>
Created by potrace 1.11, written by Peter Selinger 2001-2013
</metadata>
<g transform="translate(0.000000,512.000000) scale(0.100000,-0.100000)"
fill="#000000" stroke="none">
<path d="M0 2560 l0 -2560 2560 0 2560 0 0 2560 0 2560 -2560 0 -2560 0 0
-2560z m2438 1696 c335 -56 556 -181 683 -387 l29 -46 112 -7 c205 -13 350
-51 564 -150 56 -25 113 -46 128 -46 62 0 116 49 151 136 22 55 26 59 59 62
20 2 36 2 36 0 0 -2 14 -201 30 -443 16 -242 30 -459 30 -483 0 -42 -1 -43
-31 -40 -30 3 -33 7 -68 108 -154 434 -420 662 -816 699 -187 18 -349 -11
-521 -94 -178 -86 -306 -219 -407 -420 -24 -49 -48 -101 -52 -114 -7 -23 -6
-24 26 -17 57 11 154 64 210 114 67 60 124 149 150 232 18 62 23 68 74 98 96
57 274 112 366 112 l32 0 -6 -87 c-13 -185 -87 -332 -225 -446 -54 -45 -197
-125 -252 -141 -21 -5 -7 -12 80 -40 135 -43 170 -58 252 -113 88 -58 160
-139 208 -235 171 -342 12 -770 -355 -951 -84 -42 -235 -85 -310 -89 l-49 -3
-53 84 -53 85 86 45 c150 77 260 209 299 356 20 77 19 211 -1 289 -66 255
-276 422 -609 482 -68 12 -147 16 -320 15 -126 -1 -248 -5 -270 -9 l-40 -7 -3
-581 -2 -582 42 -10 c60 -15 260 -44 265 -38 3 2 -11 44 -31 93 -114 286 -138
654 -66 991 l12 52 106 0 c100 0 265 -13 322 -25 l26 -6 -13 -102 c-15 -127
-17 -452 -2 -572 14 -117 58 -291 98 -385 175 -422 572 -651 1054 -609 176 15
329 70 462 164 74 53 239 222 324 333 35 45 66 82 68 82 10 0 63 -35 63 -41 0
-3 -36 -60 -79 -125 -220 -330 -456 -500 -801 -577 -79 -17 -129 -21 -295 -21
-223 0 -325 13 -480 65 -245 82 -455 234 -610 442 l-57 77 -609 0 -609 0 0 39
0 38 104 5 c126 6 200 35 246 99 56 78 55 49 55 1254 0 1261 5 1186 -79 1263
-56 52 -122 72 -238 72 l-88 0 0 41 0 40 773 -4 c672 -3 785 -6 875 -21z"/>
<path d="M1794 4129 c-38 -4 -97 -14 -130 -21 l-59 -13 -3 -547 -2 -546 27 -6
c32 -7 214 -25 255 -26 23 0 32 11 77 96 165 313 439 552 764 667 31 12 -32
114 -126 203 -118 113 -246 169 -447 193 -96 12 -252 12 -356 0z"/>
</g>
</svg>
